<svg width="253" height="110" viewBox="0 0 253 110" fill="none" xmlns="http://www.w3.org/2000/svg">
<rect width="253" height="110" fill="#E5E5E5"/>
<path d="M72.7344 71.2852C71 73.7695 68.5742 75.6328 65.457 76.875C62.3633 78.0938 58.7539 78.7031 54.6289 78.7031C50.457 78.7031 46.7539 77.7305 43.5195 75.7852C40.2852 73.8164 37.7773 71.0273 35.9961 67.418C34.2383 63.8086 33.3359 59.625 33.2891 54.8672V50.4023C33.2891 42.6914 35.082 36.7148 38.668 32.4727C42.2773 28.2305 47.3398 26.1094 53.8555 26.1094C59.1992 26.1094 63.5 27.4805 66.7578 30.2227C70.0156 32.9414 72.0078 36.8086 72.7344 41.8242H65.9844C64.7188 35.0508 60.6875 31.6641 53.8906 31.6641C49.3672 31.6641 45.9336 33.2578 43.5898 36.4453C41.2695 39.6094 40.0977 44.2031 40.0742 50.2266V54.4102C40.0742 60.1523 41.3867 64.7227 44.0117 68.1211C46.6367 71.4961 50.1875 73.1836 54.6641 73.1836C57.1953 73.1836 59.4102 72.9023 61.3086 72.3398C63.207 71.7773 64.7773 70.8281 66.0195 69.4922V57.9961H54.1719V52.5117H72.7344V71.2852Z" fill="black"/>
<path d="M103.5 55.3291C103.5 81.1585 82.1388 102.329 55.5 102.329C28.8612 102.329 7.5 81.1585 7.5 55.3291C7.5 29.4997 28.8612 8.32914 55.5 8.32914C82.1388 8.32914 103.5 29.4997 103.5 55.3291Z" stroke="black" stroke-width="15"/>
<path d="M103.5 55.3291C103.5 81.1585 82.1388 102.329 55.5 102.329C28.8612 102.329 7.5 81.1585 7.5 55.3291C7.5 29.4997 28.8612 8.32914 55.5 8.32914C82.1388 8.32914 103.5 29.4997 103.5 55.3291Z" stroke="url(#paint0_linear)" stroke-width="15"/>
<path d="M103.5 55.3291C103.5 81.1585 82.1388 102.329 55.5 102.329C28.8612 102.329 7.5 81.1585 7.5 55.3291C7.5 29.4997 28.8612 8.32914 55.5 8.32914C82.1388 8.32914 103.5 29.4997 103.5 55.3291Z" stroke="url(#paint1_linear)" stroke-width="15"/>
<rect x="112" y="59" width="141" height="32" fill="#C4C4C4" fill-opacity="0.1"/>
<g style="mix-blend-mode:darken">
<path d="M123.012 79.796H120.632V77.948H125.112V86.992C123.88 87.888 122.2 88.336 120.072 88.336C117.384 88.336 115.499 87.384 114.416 85.48C113.445 83.7627 112.96 81.448 112.96 78.536C112.96 75.624 113.66 73.2347 115.06 71.368C116.479 69.5013 118.485 68.568 121.08 68.568C122.349 68.568 123.553 68.7547 124.692 69.128L124.272 70.696C123.245 70.5093 122.265 70.416 121.332 70.416C117.244 70.416 115.2 73.1227 115.2 78.536C115.2 82.4187 116.077 84.864 117.832 85.872C118.541 86.2827 119.381 86.488 120.352 86.488C121.341 86.488 122.228 86.348 123.012 86.068V79.796ZM136.81 77.724C136.81 77.1827 136.642 76.772 136.306 76.492C135.97 76.212 135.522 76.072 134.962 76.072C133.842 76.072 132.965 76.5387 132.33 77.472C131.696 78.3867 131.332 79.4973 131.238 80.804C134.953 80.804 136.81 79.7773 136.81 77.724ZM134.402 88.336C130.893 88.336 129.138 86.096 129.138 81.616C129.138 79.5627 129.652 77.864 130.678 76.52C131.724 75.176 133.189 74.504 135.074 74.504C136.232 74.504 137.146 74.784 137.818 75.344C138.509 75.8853 138.854 76.6413 138.854 77.612C138.854 78.564 138.621 79.348 138.154 79.964C137.706 80.5613 137.09 81.0187 136.306 81.336C134.832 81.9333 133.124 82.232 131.182 82.232C131.182 85.2 132.368 86.684 134.738 86.684C135.933 86.684 137.062 86.3573 138.126 85.704L138.434 86.796C137.968 87.2627 137.352 87.636 136.586 87.916C135.84 88.196 135.112 88.336 134.402 88.336ZM148.616 86.6L148.896 87.832C148.205 88.168 147.374 88.336 146.404 88.336C145.022 88.336 144.108 87.9627 143.66 87.216C143.212 86.4693 142.988 85.284 142.988 83.66V76.324H140.748V75.12L142.988 74.84V71.928L145.004 71.592V74.84H148.616V76.324H145.004V83.044C145.004 84.78 145.153 85.8347 145.452 86.208C145.825 86.6373 146.329 86.852 146.964 86.852C147.598 86.852 148.149 86.768 148.616 86.6ZM158.762 68.904C160.423 68.68 162.131 68.568 163.886 68.568C165.659 68.568 167.068 69.0067 168.114 69.884C169.159 70.7613 169.682 71.9933 169.682 73.58C169.682 76.2867 168.31 78.0133 165.566 78.76L168.366 84.276C168.814 85.1907 169.224 85.8347 169.598 86.208C169.99 86.5627 170.456 86.74 170.998 86.74L171.082 88.084C171.007 88.1587 170.634 88.196 169.962 88.196C169.308 88.196 168.72 87.9627 168.198 87.496C167.675 87.0107 167.162 86.264 166.658 85.256L163.522 79.096C163.242 79.152 162.915 79.18 162.542 79.18H160.806V88H158.678L158.762 68.904ZM160.806 77.416H162.598C165.827 77.416 167.442 76.1747 167.442 73.692C167.442 71.508 166.154 70.416 163.578 70.416C162.532 70.416 161.608 70.472 160.806 70.584V77.416ZM180.834 77.724C180.834 77.1827 180.666 76.772 180.33 76.492C179.994 76.212 179.546 76.072 178.986 76.072C177.866 76.072 176.988 76.5387 176.354 77.472C175.719 78.3867 175.355 79.4973 175.262 80.804C178.976 80.804 180.834 79.7773 180.834 77.724ZM178.426 88.336C174.916 88.336 173.162 86.096 173.162 81.616C173.162 79.5627 173.675 77.864 174.702 76.52C175.747 75.176 177.212 74.504 179.098 74.504C180.255 74.504 181.17 74.784 181.842 75.344C182.532 75.8853 182.878 76.6413 182.878 77.612C182.878 78.564 182.644 79.348 182.178 79.964C181.73 80.5613 181.114 81.0187 180.33 81.336C178.855 81.9333 177.147 82.232 175.206 82.232C175.206 85.2 176.391 86.684 178.762 86.684C179.956 86.684 181.086 86.3573 182.15 85.704L182.458 86.796C181.991 87.2627 181.375 87.636 180.61 87.916C179.863 88.196 179.135 88.336 178.426 88.336ZM190.455 88.336C186.964 88.336 185.219 86.1893 185.219 81.896C185.219 79.768 185.732 78.004 186.759 76.604C187.804 75.204 189.288 74.504 191.211 74.504C192.312 74.504 193.292 74.6907 194.151 75.064L193.843 76.52C193.078 76.2587 192.275 76.128 191.435 76.128C188.691 76.128 187.319 78.0693 187.319 81.952C187.319 85.1067 188.476 86.684 190.791 86.684C191.967 86.684 193.068 86.3573 194.095 85.704L194.403 86.796C193.936 87.2627 193.33 87.636 192.583 87.916C191.855 88.196 191.146 88.336 190.455 88.336ZM200.118 88.224C199.259 88.224 198.662 88.0187 198.326 87.608C197.99 87.1973 197.822 86.5253 197.822 85.592V74.84H199.838V84.444C199.838 85.4333 199.913 86.0773 200.062 86.376C200.211 86.656 200.641 86.796 201.35 86.796L201.406 88.028C200.977 88.1587 200.547 88.224 200.118 88.224ZM197.626 70.444C197.626 69.5667 198.055 69.128 198.914 69.128C199.698 69.128 200.09 69.5573 200.09 70.416C200.09 71.256 199.679 71.676 198.858 71.676C198.037 71.676 197.626 71.2653 197.626 70.444ZM206.605 74.588C206.978 74.7373 207.165 75.176 207.165 75.904C207.165 76.6133 207.1 77.3133 206.969 78.004H207.137C207.772 75.6707 209.181 74.504 211.365 74.504C212.989 74.504 214.128 75.036 214.781 76.1C215.434 77.1453 215.761 78.7227 215.761 80.832C215.761 82.9413 215.238 84.724 214.193 86.18C213.166 87.6173 211.608 88.336 209.517 88.336C208.714 88.336 207.902 88.168 207.081 87.832V94.384H205.205V78.956C205.205 77.0707 205.102 75.68 204.897 74.784L206.605 74.588ZM207.081 83.548V86.432C207.622 86.712 208.434 86.852 209.517 86.852C212.28 86.852 213.661 84.668 213.661 80.3C213.661 77.5 212.784 76.1 211.029 76.1C210.301 76.1 209.666 76.3427 209.125 76.828C208.584 77.2947 208.173 77.92 207.893 78.704C207.352 80.1973 207.081 81.812 207.081 83.548ZM226.635 77.724C226.635 77.1827 226.467 76.772 226.131 76.492C225.795 76.212 225.347 76.072 224.787 76.072C223.667 76.072 222.789 76.5387 222.155 77.472C221.52 78.3867 221.156 79.4973 221.063 80.804C224.777 80.804 226.635 79.7773 226.635 77.724ZM224.227 88.336C220.717 88.336 218.963 86.096 218.963 81.616C218.963 79.5627 219.476 77.864 220.503 76.52C221.548 75.176 223.013 74.504 224.899 74.504C226.056 74.504 226.971 74.784 227.643 75.344C228.333 75.8853 228.679 76.6413 228.679 77.612C228.679 78.564 228.445 79.348 227.979 79.964C227.531 80.5613 226.915 81.0187 226.131 81.336C224.656 81.9333 222.948 82.232 221.007 82.232C221.007 85.2 222.192 86.684 224.563 86.684C225.757 86.684 226.887 86.3573 227.951 85.704L228.259 86.796C227.792 87.2627 227.176 87.636 226.411 87.916C225.664 88.196 224.936 88.336 224.227 88.336Z" fill="black"/>
</g>
<defs>
<linearGradient id="paint0_linear" x1="56.5" y1="-5" x2="56.5" y2="104" gradientUnits="userSpaceOnUse">
<stop stop-color="white"/>
<stop offset="1" stop-color="white" stop-opacity="0"/>
</linearGradient>
<linearGradient id="paint1_linear" x1="55.5" y1="0.82914" x2="55.5" y2="109.829" gradientUnits="userSpaceOnUse">
<stop stop-color="white"/>
<stop offset="1" stop-color="white" stop-opacity="0"/>
</linearGradient>
</defs>
</svg>
